<?xml version="1.0" encoding="UTF-8" standalone="no"?>
<!-- Created with Inkscape (http://www.inkscape.org/) -->

<svg
   xmlns:dc="http://purl.org/dc/elements/1.1/"
   xmlns:cc="http://creativecommons.org/ns#"
   xmlns:rdf="http://www.w3.org/1999/02/22-rdf-syntax-ns#"
   xmlns:svg="http://www.w3.org/2000/svg"
   xmlns="http://www.w3.org/2000/svg"
   version="1.1"
   width="546.20703"
   height="309.55124"
   id="svg4933">
  <defs
     id="defs4935" />
  <metadata
     id="metadata4938">
    <rdf:RDF>
      <cc:Work
         rdf:about="">
        <dc:format>image/svg+xml</dc:format>
        <dc:type
           rdf:resource="http://purl.org/dc/dcmitype/StillImage" />
        <dc:title></dc:title>
      </cc:Work>
    </rdf:RDF>
  </metadata>
  <g
     transform="translate(-85.964076,-702.56175)"
     id="layer1">
    <path
       d="m 92.408932,852.23686 c -2.369459,14.47555 -4.157914,27.77958 -5.555312,38.30447 l 48.0776,21.52752 c 1.6896,-12.72574 3.14248,-28.89553 5.17237,-46.02973 L 92.408932,852.23686 z"
       id="casa1"
       style="fill:none;stroke:#000000;stroke-width:1.77592409;stroke-linecap:round;stroke-linejoin:round;stroke-miterlimit:4;stroke-opacity:1;stroke-dasharray:none" />
    <path
       d="m 145.99189,826.97989 -45.96313,-13.9077 c -3.056978,13.24745 -5.570168,26.64285 -7.619828,39.16467 l 47.694658,13.80226 c 1.51846,-12.81717 3.36653,-26.18066 5.8883,-39.05923 z"
       id="casa2"
       style="fill:none;stroke:#000000;stroke-width:1.77592409;stroke-linecap:round;stroke-linejoin:round;stroke-miterlimit:4;stroke-opacity:1;stroke-dasharray:none" />
    <path
       d="M 154.64397,794.34174 110.04053,777.6425 c -3.8842,11.14334 -7.19283,23.21376 -10.01177,35.42969 l 45.96313,13.9077 c 2.25561,-11.51929 5.06558,-22.62876 8.65208,-32.63815 z"
       id="casa3"
       style="fill:none;stroke:#000000;stroke-width:1.77592409;stroke-linecap:round;stroke-linejoin:round;stroke-miterlimit:4;stroke-opacity:1;stroke-dasharray:none" />
    <path
       d="m 168.31859,768.01366 -37.92153,-29.78003 c -8.15845,9.70273 -14.84681,23.60209 -20.35653,39.40887 l 44.60344,16.69924 c 3.65342,-10.19614 8.12076,-19.23318 13.67462,-26.32808 z"
       id="casa4"
       style="fill:none;stroke:#000000;stroke-width:1.77592409;stroke-linecap:round;stroke-linejoin:round;stroke-miterlimit:4;stroke-opacity:1;stroke-dasharray:none" />
    <path
       d="m 192.02163,749.5163 -16.55495,-36.88372 c -17.08856,5.24169 -29.87048,12.05165 -38.03252,18.6028 -2.46338,1.9772 -4.80188,4.33993 -7.0371,6.99825 l 37.92153,29.78003 c 2.40946,-3.07802 5.02302,-5.79462 7.86401,-8.0749 5.41474,-4.34607 10.14802,-7.77601 15.83903,-10.42246 z"
       id="casa5"
       style="fill:none;stroke:#000000;stroke-width:1.77592409;stroke-linecap:round;stroke-linejoin:round;stroke-miterlimit:4;stroke-opacity:1;stroke-dasharray:none" />
    <path
       d="m 220.6362,743.11743 -4.5175,-38.37661 c -15.47725,1.53161 -29.07134,4.33953 -40.65202,7.89176 l 16.55495,36.88372 c 7.01928,-3.26413 15.54016,-5.32022 28.61457,-6.39887 z"
       id="casa6"
       style="fill:none;stroke:#000000;stroke-width:1.77592409;stroke-linecap:round;stroke-linejoin:round;stroke-miterlimit:4;stroke-opacity:1;stroke-dasharray:none" />
    <path
       d="m 254.54525,742.22391 3.17447,-38.52645 c -4.09239,-0.0756 -8.08915,-0.16898 -12.37042,-0.21644 -0.84763,-0.009 -1.69164,-0.0147 -2.5307,-0.0166 -9.46388,-0.0221 -18.34414,0.44957 -26.6999,1.27645 l 4.5175,38.37661 c 8.84775,-0.72996 19.89854,-0.99717 33.90905,-0.89352 z"
       id="casa7"
       style="fill:none;stroke:#000000;stroke-width:1.77592409;stroke-linecap:round;stroke-linejoin:round;stroke-miterlimit:4;stroke-opacity:1;stroke-dasharray:none" />
    <path
       d="m 290.70196,743.739 5.31112,-38.39881 c -11.79805,-0.91643 -24.50737,-1.38796 -38.29336,-1.64273 l -3.17447,38.52645 c 1.02776,0.008 1.941,-7.1e-4 3.00242,0.0111 12.83613,0.1423 23.73287,0.66453 33.15429,1.50399 z"
       id="casa8"
       style="fill:none;stroke:#000000;stroke-width:1.77592409;stroke-linecap:round;stroke-linejoin:round;stroke-miterlimit:4;stroke-opacity:1;stroke-dasharray:none" />
    <path
       d="m 322.12471,749.27766 12.48697,-38.15462 c -11.61972,-2.90367 -24.42375,-4.68179 -38.5986,-5.78285 l -5.31112,38.39881 c 13.35036,1.18952 23.5322,3.06457 31.42275,5.53866 z"
       id="casa9"
       style="fill:none;stroke:#000000;stroke-width:1.77592409;stroke-linecap:round;stroke-linejoin:round;stroke-miterlimit:4;stroke-opacity:1;stroke-dasharray:none" />
    <path
       d="m 342.07056,760.96546 32.36067,-31.52265 c -0.7469,-0.59475 -1.50354,-1.19121 -2.34755,-1.79257 -10.90141,-7.76738 -23.30316,-12.98652 -37.472,-16.5272 l -12.48697,38.15462 c 9.64059,3.02282 15.80679,6.95742 19.94585,11.6878 z"
       id="casa10"
       style="fill:none;stroke:#000000;stroke-width:1.77592409;stroke-linecap:round;stroke-linejoin:round;stroke-miterlimit:4;stroke-opacity:1;stroke-dasharray:none" />
    <path
       d="m 346.68797,777.90889 39.86949,-3.05237 c 0.50887,-6.43893 0.97342,-14.22956 0.59383,-16.3496 -1.33884,-7.4774 1.62256,-17.64311 -12.72006,-29.06411 l -32.36067,31.52265 c 0.72861,0.83271 1.41645,1.68199 2.02567,2.56399 2.50916,3.63268 3.06712,8.91808 2.59174,14.37944 z"
       id="casa11"
       style="fill:none;stroke:#000000;stroke-width:1.77592409;stroke-linecap:round;stroke-linejoin:round;stroke-miterlimit:4;stroke-opacity:1;stroke-dasharray:none" />
    <path
       d="m 341.58218,796.66709 35.71828,20.21778 c 5.11922,-10.71355 6.42629,-23.4068 8.41899,-33.26528 0.15175,-0.75077 0.50321,-4.52667 0.83801,-8.76307 l -39.86949,3.05237 c -0.60841,6.98961 -2.92411,14.25369 -5.10579,18.7582 z"
       id="casa12"
       style="fill:none;stroke:#000000;stroke-width:1.77592409;stroke-linecap:round;stroke-linejoin:round;stroke-miterlimit:4;stroke-opacity:1;stroke-dasharray:none" />
    <path
       d="m 322.26901,815.66948 23.2646,28.45918 c 10.68875,-5.3087 20.08629,-11.0208 26.55007,-18.88584 2.10467,-2.56094 3.79775,-5.3882 5.21678,-8.35795 l -35.71828,-20.21778 c -0.36383,0.75121 -0.72321,1.44319 -1.0711,2.02566 -4.23557,7.09164 -12.11751,13.38901 -18.24207,16.97673 z"
       id="casa13"
       style="fill:none;stroke:#000000;stroke-width:1.77592409;stroke-linecap:round;stroke-linejoin:round;stroke-miterlimit:4;stroke-opacity:1;stroke-dasharray:none" />
    <path
       d="m 293.73213,826.50261 16.81578,34.43073 c 11.88679,-6.39028 24.10678,-11.40153 34.9857,-16.80468 l -23.2646,-28.45918 c -1.75468,1.02787 -3.38932,1.86731 -4.72285,2.39749 -6.75452,2.68547 -15.39981,5.3429 -23.81403,8.43564 z"
       id="casa14"
       style="fill:none;stroke:#000000;stroke-width:1.77592409;stroke-linecap:round;stroke-linejoin:round;stroke-miterlimit:4;stroke-opacity:1;stroke-dasharray:none" />
    <path
       d="m 259.60109,852.52545 25.51781,27.89311 c 2.46776,-3.52143 4.87021,-6.22708 6.95385,-7.81407 5.88839,-4.48482 12.13705,-8.26381 18.47516,-11.67115 l -16.81578,-34.43073 c -11.16352,4.10329 -24.05509,12.22301 -31.79459,22.77623 -0.83301,1.13585 -1.5524,2.16076 -2.33645,3.24661 z"
       id="casa15"
       style="fill:none;stroke:#000000;stroke-width:1.77592409;stroke-linecap:round;stroke-linejoin:round;stroke-miterlimit:4;stroke-opacity:1;stroke-dasharray:none" />
    <path
       d="m 241.48666,883.50978 33.08769,17.05996 c 3.13549,-7.9387 6.90611,-14.95925 10.54455,-20.15118 l -25.51781,-27.89311 c -8.18565,11.3365 -13.79374,20.19796 -18.11443,30.98433 z"
       id="casa16"
       style="fill:none;stroke:#000000;stroke-width:1.77592409;stroke-linecap:round;stroke-linejoin:round;stroke-miterlimit:4;stroke-opacity:1;stroke-dasharray:none" />
    <path
       d="m 232.69584,917.47433 35.79597,4.85604 c 1.23797,-7.57499 3.41578,-15.00869 6.08254,-21.76063 l -33.08769,-17.05996 c -2.66352,6.64931 -4.84228,14.02755 -6.82066,23.17581 -0.78383,3.62454 -1.43128,7.22162 -1.97016,10.78874 z"
       id="casa17"
       style="fill:none;stroke:#000000;stroke-width:1.77592409;stroke-linecap:round;stroke-linejoin:round;stroke-miterlimit:4;stroke-opacity:1;stroke-dasharray:none" />
    <path
       d="m 231.45269,951.58872 36.55074,-7.71417 c -0.97802,-7.00874 -0.6891,-14.33935 0.48838,-21.54418 l -35.79597,-4.85604 c -1.80259,11.93221 -2.22085,23.46369 -1.24315,34.11439 z"
       id="casa18"
       style="fill:none;stroke:#000000;stroke-width:1.77592409;stroke-linecap:round;stroke-linejoin:round;stroke-miterlimit:4;stroke-opacity:1;stroke-dasharray:none" />
    <path
       d="m 240.07147,983.28896 34.77482,-20.40093 c -3.74147,-5.75674 -5.89647,-12.23139 -6.84286,-19.01348 l -36.55074,7.71417 c 1.09346,11.91178 3.96408,22.69547 8.61878,31.70024 z"
       id="casa19"
       style="fill:none;stroke:#000000;stroke-width:1.77592409;stroke-linecap:round;stroke-linejoin:round;stroke-miterlimit:4;stroke-opacity:1;stroke-dasharray:none" />
    <path
       d="m 273.33675,1009.7225 12.94205,-35.46299 c -1.47342,-0.80091 -3.00781,-1.89511 -4.61186,-3.35206 -2.70656,-2.45843 -4.95649,-5.15116 -6.82065,-8.01942 l -34.77482,20.40093 c 5.03969,9.74956 12.17432,17.41034 21.50533,22.06584 3.96688,1.9792 7.89329,3.4119 11.75995,4.3677 z"
       id="casa20"
       style="fill:none;stroke:#000000;stroke-width:1.77592409;stroke-linecap:round;stroke-linejoin:round;stroke-miterlimit:4;stroke-opacity:1;stroke-dasharray:none" />
    <path
       d="m 316.6027,1001.4145 -15.93337,-30.09083 c -3.96168,4.44519 -8.69779,6.03017 -14.39053,2.93584 l -12.94205,35.46299 c 16.04994,3.9673 31.02499,-0.3419 43.26595,-8.308 z"
       id="casa21"
       style="fill:none;stroke:#000000;stroke-width:1.77592409;stroke-linecap:round;stroke-linejoin:round;stroke-miterlimit:4;stroke-opacity:1;stroke-dasharray:none" />
    <path
       d="m 344.18502,969.3868 -33.95345,-17.82028 c -2.55362,8.21533 -5.67157,15.39165 -9.56224,19.75715 l 15.93337,30.09083 c 12.90233,-8.39653 22.73986,-20.85639 27.58232,-32.0277 z"
       id="casa22"
       style="fill:none;stroke:#000000;stroke-width:1.77592409;stroke-linecap:round;stroke-linejoin:round;stroke-miterlimit:4;stroke-opacity:1;stroke-dasharray:none" />
    <path
       d="m 351.33867,929.8836 -34.70822,-6.44328 c -1.60019,9.22958 -3.64676,19.27231 -6.39888,28.1262 l 33.95345,17.82028 c 1.28481,-2.96397 2.23895,-5.8429 2.78043,-8.52444 2.55679,-12.66173 3.37518,-22.84637 4.37322,-30.97876 z"
       id="casa23"
       style="fill:none;stroke:#000000;stroke-width:1.77592409;stroke-linecap:round;stroke-linejoin:round;stroke-miterlimit:4;stroke-opacity:1;stroke-dasharray:none" />
    <path
       d="m 360.15724,906.76327 -30.67909,-19.21326 c -6.87801,11.01929 -11.19273,26.34475 -12.8477,35.89031 l 34.70822,6.44328 c 1.19858,-9.76653 3.69807,-18.86569 8.81857,-23.12033 z"
       id="casa24"
       style="fill:none;stroke:#000000;stroke-width:1.77592409;stroke-linecap:round;stroke-linejoin:round;stroke-miterlimit:4;stroke-opacity:1;stroke-dasharray:none" />
    <path
       d="m 376.81763,899.87049 -15.04541,-35.28541 c -8.64993,3.38677 -17.29032,8.06646 -24.13037,13.39714 -3.03516,2.36537 -5.75482,5.7085 -8.1637,9.56779 l 30.67909,19.21326 c 0.12196,-0.10131 0.23577,-0.21501 0.36073,-0.31078 3.51869,-2.69651 8.56118,-5.30803 16.29966,-6.582 z"
       id="casa25"
       style="fill:none;stroke:#000000;stroke-width:1.77592409;stroke-linecap:round;stroke-linejoin:round;stroke-miterlimit:4;stroke-opacity:1;stroke-dasharray:none" />
    <path
       d="m 398.32851,899.81497 10.34476,-37.25 c -7.65603,-2.13425 -15.08467,-3.49935 -21.52198,-3.59625 -7.04776,-0.10608 -16.21867,2.02973 -25.37907,5.61636 l 15.04541,35.28541 c 4.07476,-0.67086 8.88327,-0.97749 14.64027,-0.71593 2.41376,0.10966 4.70162,0.3354 6.87061,0.66041 z"
       id="casa26"
       style="fill:none;stroke:#000000;stroke-width:1.77592409;stroke-linecap:round;stroke-linejoin:round;stroke-miterlimit:4;stroke-opacity:1;stroke-dasharray:none" />
    <path
       d="m 420.73845,909.13303 25.99509,-30.28505 c -10.84985,-6.4624 -24.8092,-12.58905 -38.06027,-16.28301 l -10.34476,37.25 c 9.59897,1.43837 16.8537,4.88226 22.40994,9.31806 z"
       id="casa27"
       style="fill:none;stroke:#000000;stroke-width:1.77592409;stroke-linecap:round;stroke-linejoin:round;stroke-miterlimit:4;stroke-opacity:1;stroke-dasharray:none" />
    <path
       d="m 435.18449,928.75145 38.07692,-15.58373 c -1.66186,-5.14921 -3.79368,-10.61385 -6.82065,-16.16647 -3.56631,-6.54192 -8.60883,-11.75442 -19.35204,-18.15327 l -25.99508,30.28505 c 7.02967,5.6121 11.30615,12.81873 14.09085,19.61842 z"
       id="casa28"
       style="fill:none;stroke:#000000;stroke-width:1.77592409;stroke-linecap:round;stroke-linejoin:round;stroke-miterlimit:4;stroke-opacity:1;stroke-dasharray:none" />
    <path
       d="m 447.97669,966.68963 35.46854,-23.82514 c -4.77914,-3.50134 -5.53905,-15.3052 -10.18382,-29.69677 l -38.07692,15.58373 c 2.44614,5.97304 3.74408,11.63335 4.7062,15.60593 2.30929,9.53535 5.02665,16.8169 8.086,22.33225 z"
       id="casa29"
       style="fill:none;stroke:#000000;stroke-width:1.77592409;stroke-linecap:round;stroke-linejoin:round;stroke-miterlimit:4;stroke-opacity:1;stroke-dasharray:none" />
    <path
       d="m 504.42333,973.64347 -2.57509,-34.76371 c -4.97829,2.55184 -9.67884,4.63809 -14.0298,5.01698 -1.61699,0.14082 -2.92097,-0.22849 -4.01803,-1.03225 l -35.46854,23.82514 c 13.37216,24.1071 33.45759,14.08785 56.09146,6.95384 z"
       id="casa30"
       style="fill:none;stroke:#000000;stroke-width:1.77592409;stroke-linecap:round;stroke-linejoin:round;stroke-miterlimit:4;stroke-opacity:1;stroke-dasharray:none" />
    <path
       d="m 549.37641,972.9775 9.29029,-36.61177 c -3.27124,-1.87799 -6.61626,-3.78865 -10.06726,-5.63856 -17.47951,-9.36992 -33.21636,1.21468 -46.7512,8.15259 l 2.57509,34.76371 c 14.31047,-4.51054 29.6311,-7.84718 44.95308,-0.66597 z"
       id="casa31"
       style="fill:none;stroke:#000000;stroke-width:1.77592409;stroke-linecap:round;stroke-linejoin:round;stroke-miterlimit:4;stroke-opacity:1;stroke-dasharray:none" />
    <path
       d="m 603.76409,980.85262 -13.63578,-35.90698 c -5.02524,6.72825 -17.12362,-0.34872 -31.46161,-8.57991 l -9.29029,36.61177 c 1.41587,0.66361 2.83042,1.38533 4.24556,2.23657 19.34839,11.63798 36.88444,11.18434 50.14212,5.63855 z"
       id="casa32"
       style="fill:none;stroke:#000000;stroke-width:1.77592409;stroke-linecap:round;stroke-linejoin:round;stroke-miterlimit:4;stroke-opacity:1;stroke-dasharray:none" />
    <path
       d="m 631.24095,930.46078 -36.31764,-6.58204 c 0.0687,7.18109 -1.02853,13.85029 -3.98473,19.76272 -0.24299,0.48594 -0.51866,0.91374 -0.81027,1.30418 l 13.63578,35.90698 c 8.43161,-3.52703 15.13781,-9.10688 19.46301,-14.96771 6.42934,-8.71203 8.39527,-21.15892 8.01385,-35.42413 z"
       id="casa33"
       style="fill:none;stroke:#000000;stroke-width:1.77592409;stroke-linecap:round;stroke-linejoin:round;stroke-miterlimit:4;stroke-opacity:1;stroke-dasharray:none" />
    <path
       d="m 625.70229,887.35022 -36.41198,3.46859 c 3.04318,11.65431 5.53569,22.88643 5.633,33.05993 l 36.31764,6.58204 c -0.35529,-13.28857 -2.76225,-28.16577 -5.53866,-43.11056 z"
       id="casa34"
       style="fill:none;stroke:#000000;stroke-width:1.77592409;stroke-linecap:round;stroke-linejoin:round;stroke-miterlimit:4;stroke-opacity:1;stroke-dasharray:none" />
    <path
       d="m 618.99264,850.85497 -38.65967,4.37876 c 2.33007,11.87557 5.91738,23.94319 8.95734,35.58508 l 36.41198,-3.46859 c -2.30634,-12.41456 -4.8541,-24.86052 -6.70965,-36.49525 z"
       id="casa35"
       style="fill:none;stroke:#000000;stroke-width:1.77592409;stroke-linecap:round;stroke-linejoin:round;stroke-miterlimit:4;stroke-opacity:1;stroke-dasharray:none" />
    <path
       d="m 581.25425,812.32297 c -4.80038,13.15615 -3.87052,27.87932 -0.92128,42.91076 l 38.65967,-4.37876 c -1.74483,-10.94033 -2.87929,-21.16511 -2.57509,-29.91877 l -35.1633,-8.61323 z"
       id="casa36"
       style="fill:none;stroke:#000000;stroke-width:1.77592409;stroke-linecap:round;stroke-linejoin:round;stroke-miterlimit:4;stroke-opacity:1;stroke-dasharray:none" />
  </g>
</svg>
